**ABCDEFGHIJKLMNOPQRSTUVWXYZabcdefghijklmnopqrstuvwxyz**************************
**PARASOLID !"#$%&'()*+,-./:;<=>?@[\]^_`{|}~0123456789**************************
**PART1;
MC=AMD64;
MC_MODEL=Intel64 Family 6 Model 69 Stepping 1, GenuineIntel;
MC_ID=unknown;
OS=Windows_NT;
OS_RELEASE=unknown;
FRU=Parasolid Version 35.1, build 251, 11- 4-2023;
APPL=SOLIDWORKS 2024-2024016;
SITE=;
USER=unknown;
FORMAT=text;
GUISE=transmit;
KEY=base6;
FILE=base6.x_t;
DATE=Wed Feb  5 10:04:47 2025;
**PART2;
SCH=SCH_3501251_35102;
USFLD_SIZE=0;
**PART3;
**END_OF_HEADER*****************************************************************
T51 : TRANSMIT FILE created by modeller version 350125123 SCH_3501251_35102_1300
6231 0 10 21 CCCCI7 lattice222 0 CCCI4 mesh1006 0 I8 polyline1008 0 CCCCCCCCCCA1
6 mesh_offset_data206 0 Z1 5 2 3 0 0 0 0 0 0 0 0 1e3 1e-8 0 0 0 1 0 1 4 0 81 255
 2 2 5 5 1 0 0 0 0 0 0 70 11 CI9 list_type0 0 1 uI10 notransmit0 0 1 lCCCDCCDI12
 finger_index0 0 1 dI12 finger_block1012 0 CZ3 0 4 T1 0 0 1 20 1 6 6 11 255 4 3
 0 1 7 8 1 9 0 0 0 12 36 CCCI7 lattice222 0 CCCI4 mesh1006 0 I8 polyline1008 0 C
CCCCCCDI5 owner1040 0 CCCI16 boundary_lattice222 0 CCCI13 boundary_mesh1006 0 I1
7 boundary_polyline1008 0 CCCA16 index_map_offset0 0 1 dA9 index_map82 0 A17 nod
e_id_index_map82 0 A20 schema_embedding_map82 0 A5 child12 0 A14 lowest_node_id0
 0 1 dA16 mesh_offset_data206 0 Z7 893 10 11 0 0 0 0 0 0 0 1e3 1e-8 4 12 0 1 0 1
 1 13 0 14 15 16 0 0 17 18 19 0 0 0 0 0 0 0 100 10 CCCCCCCCCA9 precision229 0 Z8
 4 4 0 0 1 0 0 0 1 0 0 0 1 0 0 0 1 0 ?0 11 9 1 0 1 12 20 1 0 4 0 0 12 12 196 21
 22 0 0 0 0 0 0 0 1e3 1e-8 9 23 7 1 0 1 1 24 0 25 26 27 0 0 28 29 30 0 0 0 0 0 0
 0 100 20 2 9 0 0 1 0 0 0 1 0 0 0 1 0 0 0 1 0 ?0 81 1 21 196 31 12 32 0 0 0 0 70
 22 0 4 T12 0 0 5 20 1 33 33 13 255 24 99 0 12 0 34 0 0 35 0 50 255 25 94 0 34 3
6 0 0 +.250419534949186 -.021 .2259467634492285 1 3469446951953615e-31 0 -346944
6951953615e-31 1 0 30 255 26 98 0 37 38 0 0 +.250419534949186 -.021 .22594676344
92285 3469446951953615e-31 -1 0 29 255 27 75 0 39 40 0 .250419534949186 -.024 .1
940532365507715 19 9 CCCCCCI5 frame230 0 CA5 owner12 0 Z28 33 0 12 35 0 41 0 V0
 16 255 29 79 0 ?42 0 43 44 0 0 12 18 255 30 30 0 45 0 46 47 ?12 17 255 45 0 48
 49 50 30 42 29 0 51 -18 46 27 0 52 30 53 54 ?12 29 47 32 0 30 54 55 .2504195349
49186 -.021 .1940532365507715 29 54 29 0 46 56 47 .218580465050814 -.021 .194053
2365507715 29 55 78 0 57 47 58 .250419534949186 -.024 .2259467634492285 18 57 69
 0 59 60 0 55 ?12 29 58 77 0 60 55 40 .218580465050814 -.024 .2259467634492285 1
8 60 68 0 61 62 57 58 ?12 29 40 76 0 62 58 27 .218580465050814 -.024 .1940532365
507715 18 62 67 0 63 39 60 40 ?12 17 63 0 64 65 66 62 52 43 0 67 +18 39 66 0 42
 68 62 27 ?12 17 42 0 69 70 71 39 45 29 0 50 +18 68 21 0 72 53 39 73 ?12 17 72 0
 74 75 76 68 59 37 0 77 -18 53 24 0 78 46 68 56 ?12 29 73 23 0 68 0 56 .25041953
4949186 -.021 .2259467634492285 29 56 26 0 53 73 54 .218580465050814 -.021 .2259
467634492285 17 78 0 64 66 65 53 61 79 0 80 -15 255 64 85 0 65 81 0 17 66 0 64 6
3 78 46 80 82 0 83 +17 65 0 64 78 63 60 67 84 0 85 -17 61 0 74 76 75 60 78 79 0
 65 +16 79 81 0 ?61 43 37 38 0 0 12 17 80 0 86 77 83 53 66 82 0 75 -15 86 4 0 51
 87 0 17 77 0 86 51 80 68 75 88 0 49 -17 83 0 86 80 51 46 71 89 0 0 -16 82 13 0
 ?66 89 88 90 0 0 12 17 75 0 74 61 72 53 77 88 0 0 +15 74 87 0 76 91 0 16 88 9 0
 ?75 82 92 93 0 0 12 16 92 5 0 ?49 88 94 95 0 0 12 30 93 11 0 88 95 90 0 +.21858
0465050814 -.021 .2259467634492285 -1 -3269046768352105e-31 0 30 95 7 0 92 0 93
 0 +.250419534949186 -.021 .2259467634492285 0 0 1 30 90 15 0 82 93 96 0 +.21858
0465050814 -.021 .2259467634492285 0 0 -1 30 96 19 0 89 90 97 0 +.21858046505081
4 -.021 .1940532365507715 1 3269046768352105e-31 0 16 89 17 0 ?71 37 82 96 0 0 1
2 30 97 74 0 98 96 99 0 +.250419534949186 -.024 .2259467634492285 0 0 1 16 98 62
 0 ?100 101 0 97 0 0 12 30 99 73 0 101 97 102 0 +.218580465050814 -.024 .2259467
634492285 -1 -3269046768352105e-31 0 16 101 58 0 ?85 84 98 99 0 0 12 30 102 72 0
 84 99 103 0 +.218580465050814 -.024 .2259467634492285 0 0 -1 16 84 54 0 ?67 94
 101 102 0 0 12 30 103 71 0 94 102 44 0 +.218580465050814 -.024 .194053236550771
5 1 3269046768352105e-31 0 16 94 50 0 ?104 92 84 103 0 0 12 30 44 95 0 29 103 10
5 0 +.250419534949186 -.021 .1940532365507715 3469446951953615e-31 -1 0 30 105 9
6 0 43 44 38 0 +.218580465050814 -.021 .1940532365507715 3469446951953615e-31 -1
 0 16 43 80 0 ?63 29 79 105 0 0 12 30 38 97 0 79 105 26 0 +.218580465050814 -.02
1 .2259467634492285 3469446951953615e-31 -1 0 17 104 0 106 100 67 39 70 94 0 0 +
15 106 49 0 100 107 0 17 100 0 106 85 104 57 50 98 0 0 +17 67 0 106 104 85 62 65
 84 0 70 +17 70 0 69 52 42 62 104 94 0 0 -15 69 83 0 70 108 0 17 52 0 69 71 70 4
6 63 43 0 66 -17 71 0 69 42 52 30 83 89 0 0 +14 255 108 84 109 ?81 34 69 24 110
 +0 0 81 34 41 81 1 109 185 111 108 112 0 0 113 114 14 81 86 113 ?91 108 64 24 1
15 +0 0 91 108 41 14 34 90 116 ?108 0 48 24 25 +0 0 108 0 41 50 110 91 0 108 117
 115 0 +.218580465050814 -.021 .1940532365507715 0 0 -1 -1 0 0 13 41 34 0 0 0 0
 0 0 28 34 50 117 70 0 107 118 110 0 +784571224404505e-32 -.024 0 32690467683521
05e-31 -1 0 1 3269046768352105e-31 0 50 115 92 0 81 110 36 0 +.218580465050814 -
.021 .2259467634492285 -1 -3469446951953615e-31 0 3469446951953615e-31 -1 0 50 3
6 93 0 91 115 25 0 +.218580465050814 -.021 .2259467634492285 0 0 1 1 0 0 14 91 8
8 119 ?87 81 74 24 36 +0 0 87 81 41 81 1 119 191 111 91 120 0 116 121 122 14 87
 1 121 ?107 91 86 24 118 -0 0 107 91 41 81 1 121 193 111 87 123 0 119 124 125 14
 107 48 124 ?0 87 106 24 117 +0 0 0 87 41 50 118 3 0 87 0 117 0 +680487815845897
e-32 -.021 0 3269046768352105e-31 -1 0 1 3269046768352105e-31 0 81 1 124 195 111
 107 126 0 121 0 127 80 7 CCCCCDI12 legal_owners0 16 1 lCZ1 111 128 129 9000 1 1
 1 1 1 1 1 1 0 FFFFTFTFFFFFFFFF1 81 1 126 163 130 107 0 124 123 0 131 82 255 1 1
27 -617545264 80 1 130 0 132 8001 0 0 0 0 3 5 0 0 0 FFFFTFTFFFFFFFFF2 81 1 123 1
62 130 87 0 121 120 126 133 83 255 3 131 .792156862745098 .819607843137255 .9333
33333333333 81 1 120 161 130 91 0 119 134 123 135 83 3 133 .792156862745098 .819
607843137255 .933333333333333 81 1 134 160 130 81 0 113 112 120 136 83 3 135 .79
2156862745098 .819607843137255 .933333333333333 81 1 113 187 111 81 134 0 109 11
6 137 81 1 112 159 130 108 0 109 138 134 139 83 3 136 .792156862745098 .81960784
3137255 .933333333333333 81 1 138 158 130 34 0 116 0 112 140 83 3 139 .792156862
745098 .819607843137255 .933333333333333 81 1 116 189 111 34 138 0 113 119 141 8
3 3 140 .792156862745098 .819607843137255 .933333333333333 82 1 141 -616234544 8
2 1 137 -616496688 79 255 15 132 SDL/TYSA_COLOUR79 14 129 SWEntUnchanged82 1 125
 -623181360 82 1 122 -616365616 15 48 89 0 50 34 0 17 50 0 48 45 59 39 100 98 0
 104 -17 59 0 48 50 49 57 72 37 0 76 +17 49 0 48 59 45 68 51 92 0 0 +16 37 82 0
 ?59 79 89 26 0 0 12 17 76 0 74 72 61 57 85 101 0 100 -17 85 0 106 67 100 60 76
 101 0 0 +17 51 0 86 83 77 30 49 92 0 71 -82 1 114 -616627760 19 35 100 0 12 0 2
8 24 0 S0 74 4 CI16 index_map_offset0 0 1 dCCZ20 33 5 0 0 142 124 32 126 21 0 0
 0 0 0 0 0 0 0 0 0 0 0 0 0 81 2 142 140 143 12 0 32 0 0 144 0 81 2 32 151 145 12
 142 21 0 0 146 0 80 2 145 147 148 8004 0 0 0 0 3 5 0 0 0 FFTFFFFFFFFFFFFF2 3 83
 1 146 1 79 16 148 SDL/TYSA_DENSITY80 2 143 149 150 9000 0 0 0 0 3 5 0 0 0 FFTFT
TTFFTFFFFFF10 10 98 255 14 144 66 111 115 115 45 69 120 116 114 117 100 101 49 4
8 79 23 150 SWIMPLICITBODYNAME_ID_U80 1 31 151 152 8017 0 0 0 0 0 0 0 0 0 TTTTTT
TTTTTTTFTF3 79 13 152 SDL/TYSA_NAME81 1 10 893 31 7 153 0 0 0 0 70 11 0 4 T7 0 0
 5 20 1 154 154 13 13 99 0 7 0 155 0 0 156 0 50 14 94 0 157 158 0 0 +.2625 .05 .
01 -1 0 0 0 0 1 31 255 15 554 0 18 159 0 0 +.2345 -.004 .21 0 -1 0 0 0 -1 .015 2
9 16 361 0 19 160 0 .247 -.004 .01 19 17 33 0 7 156 0 161 0 V0 16 18 552 0 ?162
 0 163 15 0 0 7 18 19 359 0 164 0 165 16 ?7 17 164 0 166 167 162 19 168 169 0 17
0 +18 165 150 0 171 19 172 160 ?7 17 171 0 173 174 175 165 176 177 0 178 -18 172
 30 0 179 165 180 181 ?7 29 160 152 0 165 182 16 -.245 .005 .01 29 182 75 0 183
 184 160 .2625 -.05 0 18 183 66 0 185 186 187 182 ?7 29 184 76 0 187 188 182 -.2
625 -.05 0 18 187 67 0 189 183 190 184 ?7 29 188 77 0 190 191 184 -.2625 .05 0 1
8 190 68 0 192 187 193 188 ?7 29 191 78 0 193 181 188 .2625 .05 0 18 193 69 0 19
4 190 195 191 ?7 29 181 32 0 172 196 191 .2625 -.05 .01 29 196 29 0 180 197 181
 -.2625 -.05 .01 18 180 27 0 198 172 199 196 ?7 29 197 26 0 199 200 196 -.2625 .
05 .01 18 199 24 0 201 180 186 197 ?7 29 200 23 0 186 202 197 .2625 .05 .01 18 1
86 21 0 203 199 183 200 ?7 29 202 250 0 204 205 200 -.245 -.01 .01 18 204 202 0
 206 207 208 202 ?7 29 205 252 0 208 209 202 -.22 .005 .01 18 208 201 0 175 204
 210 205 ?7 29 209 253 0 210 211 205 -.22 -.01 .01 18 210 199 0 212 208 213 209
 ?7 29 211 254 0 195 214 209 -.245 -.01 .12 18 195 205 0 215 193 216 211 ?7 29 2
14 255 0 216 217 211 -.245 .005 .12 18 216 200 0 174 195 218 214 ?7 29 217 256 0
 218 219 214 -.22 .005 .12 18 218 198 0 220 216 207 217 ?7 29 219 257 0 207 221
 217 -.22 -.01 .12 18 207 204 0 222 218 204 219 ?7 29 221 456 0 213 223 219 .222
 -.004 .01 18 213 409 0 224 210 225 221 ?7 29 223 458 0 225 226 221 .247 -.024 .
01 18 225 406 0 227 213 228 223 ?7 29 226 459 0 228 229 223 .222 -.024 .01 18 22
8 413 0 230 225 231 226 ?7 29 229 644 0 231 232 226 .247 -.004 .2017084380241115
 18 231 595 0 233 228 234 229 ?7 29 232 645 0 234 235 229 .222 -.004 .2017084380
241115 18 234 599 0 236 231 237 232 ?7 29 235 650 0 237 238 232 .247 -.024 .2017
084380241115 18 237 600 0 239 234 240 235 ?7 29 238 651 0 240 0 235 .222 -.024 .
2017084380241115 18 240 594 0 241 237 0 238 ?7 17 241 0 242 239 236 240 243 244
 0 245 -15 242 606 0 241 246 0 17 239 0 242 233 241 237 245 247 0 248 -17 236 0
 242 241 233 234 162 18 0 243 -17 243 0 249 224 250 234 241 244 0 251 +16 244 59
0 0 ?243 252 253 254 0 0 7 17 245 0 255 230 256 240 239 247 0 250 +15 255 658 0
 245 257 258 17 230 0 255 259 245 228 250 260 0 261 +17 256 0 255 245 259 237 22
7 262 0 0 -16 247 593 0 ?245 263 0 264 0 0 7 17 250 0 249 243 261 240 230 260 0
 0 -15 249 417 0 250 265 0 17 261 0 249 250 224 228 266 267 0 268 +16 260 567 0
 ?230 269 262 270 0 0 7 16 269 296 0 ?271 272 260 273 0 0 7 16 262 559 0 ?227 26
0 169 274 0 0 7 30 270 444 0 260 274 273 0 +.222 -.024 .21 0 0 -1 30 274 445 0 2
62 275 270 0 +.247 -.024 .21 0 0 -1 31 273 316 0 269 270 276 0 +-.2325 -.018 .1
 0 -1 0 0 0 -1 .0035 30 276 249 0 277 273 278 0 +0 -.01 .12 1 0 0 16 277 186 0 ?
222 279 280 276 0 0 7 30 278 248 0 279 276 281 0 +-.22 0 .12 0 -1 0 16 279 174 0
 ?282 283 277 278 0 0 7 30 281 247 0 283 278 284 0 +17347234759768e-32 .005 .12
 1 -3469446951953615e-32 0 16 283 178 0 ?285 286 279 281 0 0 7 30 284 246 0 286
 281 287 0 +-.245 0 .12 0 -1 0 16 286 189 0 ?215 288 283 284 0 0 7 30 287 245 0
 272 284 289 0 +0 -.01 .01 1 0 0 16 272 170 0 ?290 291 269 287 0 0 7 30 289 244
 0 291 287 292 0 +-.22 0 .01 0 -1 0 16 291 195 0 ?293 177 272 289 0 0 7 30 292 2
43 0 177 289 294 0 +17347234759768e-32 .005 .01 1 -3469446951953615e-32 0 16 177
 192 0 ?176 280 291 292 0 0 7 30 294 242 0 280 292 295 0 +-.245 0 .01 0 -1 0 16
 280 182 0 ?206 277 177 294 0 0 7 30 295 241 0 288 294 296 0 +-.245 -.01 .12 0 0
 -1 16 288 173 0 ?297 298 286 295 0 0 7 30 296 240 0 298 295 299 0 +-.245 .005 .
12 0 0 -1 16 298 185 0 ?178 300 288 296 0 0 7 30 299 239 0 300 296 301 0 +-.22 .
005 .12 0 0 -1 16 300 181 0 ?175 302 298 299 0 0 7 30 301 238 0 302 299 303 0 +-
.22 -.01 .12 0 0 -1 16 302 177 0 ?212 304 300 301 0 0 7 30 303 7 0 305 301 306 0
 +.2625 .05 .01 0 1 0 16 305 5 0 ?307 308 309 303 0 0 7 30 306 11 0 308 303 310
 0 +-.2625 .05 .01 -1 0 0 16 308 9 0 ?201 311 305 306 0 0 7 30 310 15 0 311 306
 312 0 +-.2625 .05 .01 0 -1 0 16 311 13 0 ?198 313 308 310 0 0 7 30 312 19 0 313
 310 314 0 +-.2625 -.05 .01 1 0 0 16 313 17 0 ?179 315 311 312 0 0 7 30 314 74 0
 304 312 316 0 +.2625 .05 0 0 1 0 16 304 62 0 ?317 318 302 314 0 0 7 30 316 73 0
 318 314 319 0 +-.2625 .05 0 -1 0 0 16 318 58 0 ?192 320 304 316 0 0 7 30 319 72
 0 320 316 321 0 +-.2625 .05 0 0 -1 0 16 320 54 0 ?189 309 318 319 0 0 7 30 321
 71 0 309 319 322 0 +-.2625 -.05 0 1 0 0 16 309 50 0 ?185 305 320 321 0 0 7 30 3
22 95 0 315 321 323 0 +.2625 -.05 .01 0 0 -1 16 315 79 0 ?324 325 313 322 0 0 7
 30 323 96 0 325 322 326 0 +-.2625 -.05 .01 0 0 -1 16 325 80 0 ?327 328 315 323
 0 0 7 30 326 97 0 328 323 329 0 +-.2625 .05 .01 0 0 -1 16 328 81 0 ?330 331 325
 326 0 0 7 30 329 98 0 331 326 159 0 +.2625 .05 .01 0 0 -1 16 331 82 0 ?332 163
 328 329 0 0 7 31 159 288 0 163 329 15 0 --.2325 -.01 .1 0 1 0 0 0 1 .0035 16 16
3 285 0 ?333 18 331 159 0 0 7 17 333 0 334 333 333 0 335 163 0 0 +15 334 303 0 3
33 336 0 17 335 0 337 335 335 0 333 163 0 0 -15 337 287 0 335 338 339 14 338 206
 340 ?341 342 337 13 343 -0 0 341 342 161 15 339 209 0 290 338 0 17 290 0 339 34
4 297 210 345 272 0 293 +17 344 0 339 346 290 207 212 302 0 282 -17 297 0 339 29
0 346 204 347 288 0 345 +17 345 0 348 349 293 204 290 272 0 0 -17 293 0 348 345
 176 210 350 291 0 0 +15 348 148 0 293 155 351 17 176 0 348 293 349 208 171 177
 0 0 +17 350 0 352 220 212 208 293 291 0 176 -15 352 213 0 350 341 0 17 220 0 35
2 282 350 218 175 300 0 353 -17 212 0 352 350 282 210 344 302 0 290 +17 282 0 35
2 212 220 207 353 279 0 0 +17 353 0 354 355 222 218 282 279 0 285 -15 354 225 0
 222 356 0 17 355 0 354 215 353 216 285 283 0 0 -17 222 0 354 353 215 207 346 27
7 0 344 +17 285 0 173 175 174 218 355 283 0 0 +15 173 217 0 171 357 0 17 175 0 1
73 171 285 208 220 300 0 350 +17 174 0 173 285 171 216 178 298 0 358 -17 178 0 3
59 206 358 165 174 298 0 349 +17 358 0 359 178 347 216 215 286 0 355 -15 359 221
 0 206 360 0 17 347 0 359 358 206 195 297 288 0 346 -17 215 0 354 222 355 195 35
8 286 0 347 +17 206 0 359 347 178 204 349 280 0 297 +17 346 0 339 297 344 195 22
2 277 0 0 -17 349 0 348 176 345 165 206 280 0 0 -14 360 218 361 ?356 357 359 13
 362 -0 0 356 357 161 81 1 361 854 111 360 363 0 340 364 365 14 356 222 364 ?336
 360 354 13 366 +0 0 336 360 161 14 357 214 367 ?360 341 173 13 368 +0 0 360 341
 161 50 362 235 0 360 366 368 0 +-.245 0 .12 1 0 0 0 0 -1 13 161 34 0 0 0 0 0 0
 17 155 14 155 374 369 ?157 0 370 13 371 +0 0 157 0 161 81 1 369 860 111 155 372
 0 367 373 374 14 157 90 373 ?375 155 376 13 14 -0 0 375 155 161 15 370 4 0 307
 155 348 50 371 3 0 155 343 377 0 +0 0 .01 0 0 1 1 0 0 50 343 232 0 338 378 371
 0 +0 -.01 .12 0 1 0 0 0 1 50 377 70 0 342 371 379 0 +0 0 0 0 0 1 1 0 0 14 342 4
8 380 ?338 381 382 13 377 -0 0 338 381 161 50 379 91 0 381 377 383 0 +-.2625 -.0
5 .01 0 1 0 0 0 1 14 381 84 384 ?342 385 386 13 379 -0 0 342 385 161 50 383 92 0
 385 379 158 0 +-.2625 .05 .01 1 0 0 0 0 -1 14 385 86 387 ?381 375 388 13 383 -0
 0 381 375 161 50 158 93 0 375 383 14 0 +-.2625 .05 .01 0 -1 0 0 0 -1 14 375 88
 389 ?385 157 390 13 158 -0 0 385 157 161 81 1 389 870 111 375 391 0 387 392 393
 15 390 87 0 192 375 0 17 192 0 390 394 332 190 194 318 0 330 +17 394 0 390 203
 192 199 330 328 0 395 -17 332 0 390 192 203 193 396 331 0 317 +17 194 0 382 397
 398 193 192 318 0 332 -17 330 0 388 189 395 190 394 328 0 398 +15 388 85 0 189
 385 0 17 189 0 388 399 330 187 398 320 0 327 +17 395 0 388 330 399 199 198 311
 0 0 -17 398 0 382 194 400 190 189 320 0 0 -15 382 49 0 397 342 0 17 400 0 382 3
98 397 187 185 309 0 0 -17 397 0 382 400 194 183 317 304 0 0 -17 185 0 386 401 3
27 183 400 309 0 324 +15 386 83 0 185 381 0 17 401 0 386 402 185 172 324 315 0 4
03 -17 327 0 386 185 402 187 399 325 0 400 +17 324 0 376 317 403 183 401 315 0 3
97 +15 376 89 0 317 157 0 17 317 0 376 396 324 193 397 304 0 0 +17 403 0 376 324
 396 172 307 305 0 0 -17 396 0 376 403 317 186 332 331 0 0 -17 307 0 370 201 179
 186 403 305 0 396 +17 201 0 370 198 307 199 203 308 0 394 +17 179 0 370 307 198
 172 402 313 0 401 +17 198 0 370 179 201 180 395 311 0 399 +17 402 0 386 327 401
 180 179 313 0 0 -17 399 0 388 395 189 180 327 325 0 402 -17 203 0 390 332 394 1
86 201 308 0 307 -81 1 391 765 130 375 0 389 404 405 406 81 1 387 868 111 385 40
5 0 384 389 407 81 1 392 872 111 341 408 0 389 409 410 82 1 393 1437008309 14 34
1 210 392 ?357 338 352 13 378 +0 0 357 338 161 81 1 408 770 130 341 0 392 411 41
2 413 81 1 409 874 111 336 414 0 392 415 416 82 1 410 1627783607 14 336 299 409
 ?417 356 418 13 419 -0 0 417 356 161 81 1 414 774 130 336 0 409 420 421 422 81
 1 415 876 111 417 421 0 409 423 424 82 1 416 1646461369 14 417 304 415 ?265 336
 425 13 426 +0 0 265 336 161 81 1 421 775 130 417 0 415 414 427 428 81 1 423 878
 111 265 427 0 415 429 430 82 1 424 1644495289 14 265 414 423 ?257 417 249 13 43
1 -0 0 257 417 161 81 1 427 776 130 265 0 423 421 432 433 81 1 429 880 111 257 4
32 0 423 434 435 82 1 430 -668007973 14 257 418 429 ?436 265 255 13 437 -0 0 436
 265 161 81 1 432 777 130 257 0 429 427 438 439 81 1 434 882 111 436 438 0 429 4
40 441 82 1 435 -668270117 14 436 422 434 ?442 257 443 13 444 -0 0 442 257 161 8
1 1 438 778 130 436 0 434 432 445 446 81 1 440 884 111 442 445 0 434 447 448 82
 1 441 -668532261 14 442 426 440 ?449 436 166 13 450 -0 0 449 436 161 81 1 445 7
79 130 442 0 440 438 451 452 81 1 447 886 111 449 451 0 440 453 454 82 1 448 -66
8794405 14 449 523 447 ?455 442 456 13 457 -0 0 455 442 161 81 1 451 780 130 449
 0 447 445 458 459 81 1 453 888 111 455 458 0 447 460 461 82 1 454 352059867 14
 455 528 453 ?246 449 462 13 463 +0 0 246 449 161 81 1 458 781 130 455 0 453 451
 464 465 81 1 460 890 111 246 464 0 453 466 467 82 1 461 351863259 14 246 602 46
0 ?468 455 469 13 470 +0 0 468 455 161 81 1 464 782 130 246 0 460 458 471 472 81
 1 466 892 111 468 471 0 460 0 473 82 1 467 364970459 14 468 623 466 ?0 246 474
 13 475 -0 0 0 246 161 81 1 471 783 130 468 0 466 464 0 476 82 1 473 356909531 8
3 3 476 .792156862745098 .819607843137255 .933333333333333 15 474 626 0 477 468
 0 50 475 635 0 468 0 470 0 +.2345 .01 .21 3469446951953615e-31 -1 0 1 346944695
1953615e-31 0 51 255 470 633 0 246 475 463 0 +.2345 .01 .21 3469446951953615e-31
 -1 0 .015 1 3469446951953615e-31 0 50 463 538 0 455 470 457 0 +.2345 -.032 .21
 3469446951953615e-31 -1 0 1 3469446951953615e-31 0 51 457 536 0 449 463 450 0 -
.2345 -.032 .21 -3469446951953615e-31 1 0 .0035 -1 -3469446951953615e-31 0 50 45
0 441 0 442 457 444 0 +.222 -.004 .21 0 -1 0 0 0 -1 50 444 440 0 436 450 437 0 +
.247 -.024 .21 -1 0 0 0 0 1 50 437 439 0 257 444 431 0 +.222 -.024 .21 0 1 0 0 0
 1 50 431 438 0 265 437 426 0 +.222 -.024 .21 1 0 0 0 0 -1 50 426 314 0 417 431
 419 0 +-.2325 -.018 .1 0 -1 0 0 0 -1 51 419 312 0 336 426 366 0 --.2325 -.018 .
1 0 1 0 .0035 0 0 1 50 366 237 0 356 419 362 0 +0 0 .12 0 0 1 1 0 0 17 477 0 474
 477 477 0 478 263 0 0 -17 478 0 469 478 478 0 477 263 0 0 +16 263 581 0 ?478 25
3 247 479 0 0 7 16 253 592 0 ?248 244 263 480 0 0 7 31 479 643 0 263 0 264 0 +.2
345 .01 .21 3469446951953615e-31 -1 0 1 3469446951953615e-31 0 .015 31 264 642 0
 247 479 480 0 +.2345 -.024 .21 3469446951953615e-31 -1 0 1 3469446951953615e-31
 0 .015 30 480 637 0 253 264 254 0 +.247 .01 .2017084380241115 3469446951953615e
-31 -1 0 30 254 636 0 244 480 481 0 -.222 .01 .2017084380241115 3469446951953615
e-31 -1 0 31 481 541 0 482 254 483 0 +.2345 -.032 .21 3469446951953615e-31 -1 0
 1 3469446951953615e-31 0 .0035 16 482 515 0 ?484 267 252 481 0 0 7 31 483 540 0
 252 481 485 0 +.2345 -.024 .21 3469446951953615e-31 -1 0 1 3469446951953615e-31
 0 .0035 16 252 509 0 ?486 482 244 483 0 0 7 30 485 451 0 267 483 487 0 +.222 -.
024 .01 0 -1 0 16 267 378 0 ?261 488 482 485 0 0 7 30 487 450 0 488 485 489 0 +.
222 -.024 .01 1 0 0 16 488 382 0 ?259 490 267 487 0 0 7 30 489 449 0 490 487 491
 0 +.247 -.024 .01 0 1 0 16 490 386 0 ?170 492 488 489 0 0 7 30 491 448 0 492 48
9 493 0 +.222 -.004 .01 -1 0 0 16 492 390 0 ?167 494 490 491 0 0 7 30 493 447 0
 494 491 275 0 +.222 -.004 .21 0 0 -1 16 494 547 0 ?224 169 492 493 0 0 7 30 275
 446 0 169 493 274 0 +.247 -.004 .21 0 0 -1 16 169 550 0 ?164 262 494 275 0 0 7
 17 224 0 249 261 243 213 251 494 0 167 +17 251 0 166 162 167 234 224 494 0 0 -1
7 167 0 166 251 164 213 495 492 0 266 +15 166 429 0 251 442 0 17 495 0 351 496 2
66 19 167 492 0 0 -17 266 0 351 495 268 213 261 267 0 0 -15 351 357 0 268 155 0
 17 268 0 351 266 496 228 259 488 0 0 -17 496 0 351 268 495 225 170 490 0 0 -17
 259 0 255 256 230 225 268 488 0 496 +17 170 0 443 168 227 19 496 490 0 495 +15
 443 425 0 168 436 0 17 168 0 443 248 170 231 164 169 0 0 -17 227 0 443 170 248
 225 256 262 0 259 +17 248 0 443 227 168 237 233 253 0 256 +17 233 0 242 236 239
 231 248 253 0 162 -17 162 0 166 164 251 231 236 18 0 168 +17 486 0 497 486 486
 0 498 252 0 0 +15 497 527 0 486 449 0 17 498 0 258 498 498 0 486 252 0 0 -15 25
8 570 0 498 257 0 17 484 0 462 484 484 0 499 482 0 0 +15 462 530 0 484 455 0 17
 499 0 456 499 499 0 484 482 0 0 -15 456 526 0 499 449 497 15 469 605 0 478 246
 242 83 3 472 .792156862745098 .819607843137255 .933333333333333 83 3 465 .79215
6862745098 .819607843137255 .933333333333333 83 3 459 .792156862745098 .81960784
3137255 .933333333333333 83 3 452 .792156862745098 .819607843137255 .93333333333
3333 83 3 446 .792156862745098 .819607843137255 .933333333333333 83 3 439 .79215
6862745098 .819607843137255 .933333333333333 83 3 433 .792156862745098 .81960784
3137255 .933333333333333 83 3 428 .792156862745098 .819607843137255 .93333333333
3333 15 425 306 0 271 417 0 17 271 0 425 271 271 0 500 269 0 0 +17 500 0 418 500
 500 0 271 269 0 0 -15 418 302 0 500 336 334 81 1 420 773 130 356 0 364 363 414
 501 83 3 422 .792156862745098 .819607843137255 .933333333333333 81 1 364 856 11
1 356 420 0 361 367 502 81 1 363 772 130 360 0 361 412 420 503 83 3 501 .7921568
62745098 .819607843137255 .933333333333333 81 1 412 771 130 357 0 367 408 363 50
4 83 3 503 .792156862745098 .819607843137255 .933333333333333 81 1 367 858 111 3
57 412 0 364 369 505 83 3 504 .792156862745098 .819607843137255 .933333333333333
 82 1 505 1627586999 82 1 502 1619722679 81 1 411 769 130 338 0 340 506 408 507
 83 3 413 .792156862745098 .819607843137255 .933333333333333 81 1 340 852 111 33
8 411 0 0 361 508 81 1 506 768 130 342 0 380 509 411 510 83 3 507 .7921568627450
98 .819607843137255 .933333333333333 81 1 380 864 111 342 506 0 373 384 511 81 1
 509 767 130 381 0 384 405 506 512 83 3 510 .792156862745098 .819607843137255 .9
33333333333333 81 1 384 866 111 381 509 0 380 387 513 81 1 405 766 130 385 0 387
 391 509 514 83 3 512 .792156862745098 .819607843137255 .933333333333333 83 3 51
4 .792156862745098 .819607843137255 .933333333333333 82 1 513 1436484021 81 1 37
3 862 111 157 404 0 369 380 515 82 1 511 1435566517 81 1 404 764 130 157 0 373 3
72 391 516 82 1 515 1437270453 81 1 372 763 130 155 0 369 0 404 517 83 3 516 .79
2156862745098 .819607843137255 .933333333333333 83 3 517 .792156862745098 .81960
7843137255 .933333333333333 82 1 508 1627914681 50 378 233 0 341 368 343 0 +-.22
 0 .12 1 0 0 0 0 -1 50 368 234 0 357 362 378 0 +17347234759768e-32 .005 .12 3469
446951953615e-32 1 0 -1 3469446951953615e-32 0 82 1 407 1436746165 83 3 406 .792
156862745098 .819607843137255 .933333333333333 82 1 374 -655621684 82 1 365 1627
324855 19 156 100 0 7 0 17 13 0 S0 74 20 154 5 0 0 466 518 153 471 10 0 0 0 0 0
 0 0 0 0 0 0 0 0 0 0 81 2 518 666 143 7 0 153 0 0 519 0 81 2 153 679 145 7 518 1
0 0 0 520 0 83 1 520 1 98 14 519 66 111 115 115 45 69 120 116 114 117 100 101 49
 49 74 20 6 1 0 0 2 0 0 0 0 0 0 0 0 0 0 0 0 0 0 0 0 0 0 0 80 2 5 521 522 9000 0
 0 0 0 3 5 0 0 0 TFFFFFFFFFFFFFFF9 1 79 18 522 MULTI_BODY_ID_20011 0 
