**ABCDEFGHIJKLMNOPQRSTUVWXYZabcdefghijklmnopqrstuvwxyz**************************
**PARASOLID !"#$%&'()*+,-./:;<=>?@[\]^_`{|}~0123456789**************************
**PART1;
MC=AMD64;
MC_MODEL=Intel64 Family 6 Model 69 Stepping 1, GenuineIntel;
MC_ID=unknown;
OS=Windows_NT;
OS_RELEASE=unknown;
FRU=Parasolid Version 35.1, build 251, 11- 4-2023;
APPL=SOLIDWORKS 2024-2024016;
SITE=;
USER=unknown;
FORMAT=text;
GUISE=transmit;
KEY=circle2;
FILE=circle2.x_t;
DATE=Wed Feb  5 08:08:30 2025;
**PART2;
SCH=SCH_3501251_35102;
USFLD_SIZE=0;
**PART3;
**END_OF_HEADER*****************************************************************
T51 : TRANSMIT FILE created by modeller version 350125123 SCH_3501251_35102_1300
6231 0 12 36 CCCI7 lattice222 0 CCCI4 mesh1006 0 I8 polyline1008 0 CCCCCCCDI5 ow
ner1040 0 CCCI16 boundary_lattice222 0 CCCI13 boundary_mesh1006 0 I17 boundary_p
olyline1008 0 CCCA16 index_map_offset0 0 1 dA9 index_map82 0 A17 node_id_index_m
ap82 0 A20 schema_embedding_map82 0 A5 child12 0 A14 lowest_node_id0 0 1 dA16 me
sh_offset_data206 0 Z1 223 2 3 0 0 0 0 0 0 0 1e3 1e-8 0 4 0 1 0 1 1 5 0 6 7 0 0
 0 8 9 0 0 0 0 0 0 0 0 81 255 2 2 211 10 1 11 0 0 0 0 12 70 11 CI9 list_type0 0
 1 uI10 notransmit0 0 1 lCCCDCCDI12 finger_index0 0 1 dI12 finger_block1012 0 CZ
3 0 4 T1 0 0 11 20 1 13 13 13 255 5 31 0 1 0 14 0 0 15 0 51 255 6 30 0 14 16 0 0
 -0 .005 0 0 -1 0 .029 0 0 -1 31 255 7 118 0 9 17 0 0 --.022 0 0 0 1 0 0 0 1 .00
35 19 9 CCCCCCI5 frame230 0 CA5 owner12 0 Z8 9 0 1 15 0 18 0 V0 16 255 9 115 0 ?
19 0 20 7 0 0 1 17 255 19 0 21 19 19 0 22 9 0 0 +16 20 5 0 ?23 9 24 25 0 0 1 17
 23 0 26 23 23 0 27 20 0 0 +16 24 20 0 ?28 20 29 17 0 0 1 31 25 7 0 20 30 17 0 +
0 .005 0 0 1 0 0 0 1 .029 31 30 100 0 29 31 25 0 -0 .005 0 0 1 0 0 0 1 .0035 31
 17 25 0 24 25 7 0 +0 0 0 0 1 0 0 0 1 .029 16 29 72 0 ?32 24 33 30 0 0 1 31 31 1
01 0 33 34 30 0 +0 0 0 0 1 0 0 0 1 .0035 16 33 73 0 ?35 29 36 31 0 0 1 31 34 149
 0 36 0 31 0 +-.022 -.005 0 0 -1 0 0 0 -1 .0035 16 36 127 0 ?37 33 0 34 0 0 1 17
 37 0 38 37 37 0 39 36 0 0 +15 255 38 138 0 37 40 0 17 39 0 41 39 39 0 37 36 0 0
 -15 41 133 0 39 42 21 14 255 42 130 43 ?40 44 41 5 45 -0 0 40 44 18 15 21 134 0
 19 42 0 81 1 43 213 46 42 47 0 0 48 49 14 40 135 48 ?0 42 38 5 50 +0 0 0 42 18
 14 44 84 51 ?42 52 53 5 54 +0 0 42 52 18 51 45 145 0 42 50 54 0 --.022 -.005 0
 0 1 0 .0035 0 0 1 13 18 10 0 0 0 0 0 0 8 14 14 14 27 55 ?56 0 57 5 6 -0 0 56 0
 18 81 1 55 219 46 14 58 0 51 59 60 14 56 1 59 ?52 14 61 5 62 +0 0 52 14 18 15 5
7 26 0 27 14 63 17 27 0 57 27 27 0 23 20 0 0 -15 63 28 0 28 14 0 17 28 0 63 28 2
8 0 64 24 0 0 +17 64 0 65 64 64 0 28 24 0 0 -15 65 19 0 64 52 0 14 52 18 66 ?44
 56 67 5 16 -0 0 44 56 18 81 1 66 223 46 52 68 0 59 0 69 15 67 117 0 22 52 70 50
 255 16 24 0 52 62 6 0 +0 0 0 0 1 0 0 0 1 50 62 3 0 56 54 16 0 +0 .005 0 0 1 0 0
 0 1 51 54 97 0 44 45 62 0 -0 .01 0 0 -1 0 .0035 0 0 -1 17 22 0 67 22 22 0 19 9
 0 0 -15 70 60 0 35 52 65 17 35 0 70 35 35 0 71 33 0 0 +17 71 0 72 71 71 0 35 33
 0 0 -15 72 88 0 71 44 0 80 7 CCCCCDI12 legal_owners0 16 1 lCZ1 46 73 74 9000 1
 1 1 1 1 1 1 1 0 FFFFTFTFFFFFFFFF1 81 3 68 222 75 52 76 66 77 0 78 0 0 81 1 59 2
21 46 56 77 0 55 66 79 82 255 1 69 1168244897 81 3 77 220 75 56 80 59 58 68 81 0
 0 82 1 79 1166540958 80 3 75 82 83 9000 0 0 0 0 3 5 0 0 0 FFFFTFFFFFFFFFFF1 1 1
 81 1 80 186 84 56 0 77 85 76 86 81 3 58 218 75 14 85 55 87 77 88 0 0 82 6 81 0
 -1300727646 31160203 0 0 0 81 1 85 185 84 14 0 58 0 80 89 81 3 87 216 75 44 90
 51 91 58 92 0 0 82 6 88 0 -2129360658 31160203 0 0 0 81 1 90 188 84 44 0 87 76
 93 94 81 1 51 217 46 44 87 0 48 55 95 81 3 91 214 75 40 96 48 47 87 97 0 0 82 6
 92 0 -1300727646 31160203 0 0 0 81 1 96 190 84 40 0 91 93 0 98 81 1 48 215 46 4
0 91 0 43 51 99 81 3 47 212 75 42 93 43 0 91 100 0 0 82 6 97 0 -516645102 311602
03 0 0 0 81 1 93 189 84 42 0 47 90 96 101 82 6 100 0 -516645102 31160203 0 0 0 8
0 1 84 0 102 8001 0 0 0 0 3 5 0 0 0 FFFFTFTFFFFFFFFF2 83 255 3 101 .792156862745
098 .819607843137255 .933333333333333 79 255 15 102 SDL/TYSA_COLOUR82 1 99 14824
24481 83 3 98 .792156862745098 .819607843137255 .933333333333333 82 1 95 -134918
9474 81 1 76 187 84 52 0 68 80 90 103 83 3 94 .792156862745098 .819607843137255
 .933333333333333 83 3 103 .792156862745098 .819607843137255 .933333333333333 83
 3 89 .792156862745098 .819607843137255 .933333333333333 83 3 86 .79215686274509
8 .819607843137255 .933333333333333 79 18 83 DOWNSTREAM_FACE_ID82 6 78 0 -516645
102 31160203 0 0 0 79 14 74 SWEntUnchanged15 61 66 0 32 56 26 17 32 0 61 32 32 0
 104 29 0 0 +15 26 4 0 23 56 0 17 104 0 53 104 104 0 32 29 0 0 -15 53 87 0 104 4
4 72 82 1 60 1168507030 50 50 147 0 40 0 45 0 +0 -.005 0 0 -1 0 0 0 -1 82 1 49 1
484914849 19 15 32 0 1 0 8 5 0 S0 74 4 CI16 index_map_offset0 0 1 dCCZ20 13 11 0
 0 68 66 105 106 107 108 109 110 11 96 2 0 0 0 0 0 0 0 0 0 81 2 105 112 111 1 0
 106 0 0 0 0 81 5 106 122 112 1 105 107 0 0 113 0 0 0 0 81 2 107 152 114 1 106 1
08 0 0 0 115 81 2 108 159 116 1 107 109 0 0 0 117 81 2 109 160 118 1 108 110 0 0
 119 0 81 1 110 164 120 1 109 11 0 0 121 81 2 11 172 122 1 110 2 0 0 123 0 80 2
 122 124 125 8004 0 0 0 0 3 5 0 0 0 FFTFFFFFFFFFFFFF2 3 83 1 123 1 79 16 125 SDL
/TYSA_DENSITY80 1 120 126 127 9000 1 1 1 1 1 1 1 1 0 FFTFFFFFFFFFFFFF1 82 1 121
 1131910 79 10 127 BODY_MATCH80 2 118 128 129 9000 0 0 0 0 3 5 0 0 0 FFTFTTTFFTF
FFFFF10 10 98 255 13 119 66 111 115 115 45 69 120 116 114 117 100 101 52 79 23 1
29 SWIMPLICITBODYNAME_ID_U80 2 116 130 131 9000 0 0 0 0 3 5 0 0 0 FFTFFFFFFFFFFF
FF9 1 82 1 117 108 79 30 131 LAST_BODY_MODIFYING_FEATURE_ID80 2 114 132 133 9000
 0 0 0 0 3 5 0 0 0 FFTFFFFFFFFFFFFF9 1 82 1 115 130 79 19 133 ENT_TIME_STAMP_200
180 5 112 134 135 9000 0 0 0 0 3 6 0 0 0 FFTTTTTTFTTFTTFF2 2 2 2 2 83 1 113 1 79
 19 135 BODY_SCALING_FACTOR80 2 111 136 137 9000 0 0 0 0 3 5 0 0 0 FFTFFFFFFFFFF
FFF9 1 79 16 137 BODY_RECIPE_200180 2 10 138 139 9000 0 0 0 0 3 5 0 0 0 FFTFFFFF
FFFFFFFF9 1 82 1 12 107 79 12 139 ATOM_ID_20011 0 
