**ABCDEFGHIJKLMNOPQRSTUVWXYZabcdefghijklmnopqrstuvwxyz**************************
**PARASOLID !"#$%&'()*+,-./:;<=>?@[\]^_`{|}~0123456789**************************
**PART1;
MC=AMD64;
MC_MODEL=Intel64 Family 6 Model 69 Stepping 1, GenuineIntel;
MC_ID=unknown;
OS=Windows_NT;
OS_RELEASE=unknown;
FRU=Parasolid Version 35.1, build 251, 11- 4-2023;
APPL=SOLIDWORKS 2024-2024016;
SITE=;
USER=unknown;
FORMAT=text;
GUISE=transmit;
KEY=link3;
FILE=link3.x_t;
DATE=Wed Feb  5 09:49:42 2025;
**PART2;
SCH=SCH_3501251_35102;
USFLD_SIZE=0;
**PART3;
**END_OF_HEADER*****************************************************************
T51 : TRANSMIT FILE created by modeller version 350125123 SCH_3501251_35102_1300
6231 0 12 36 CCCI7 lattice222 0 CCCI4 mesh1006 0 I8 polyline1008 0 CCCCCCCDI5 ow
ner1040 0 CCCI16 boundary_lattice222 0 CCCI13 boundary_mesh1006 0 I17 boundary_p
olyline1008 0 CCCA16 index_map_offset0 0 1 dA9 index_map82 0 A17 node_id_index_m
ap82 0 A20 schema_embedding_map82 0 A5 child12 0 A14 lowest_node_id0 0 1 dA16 me
sh_offset_data206 0 Z1 682 2 3 0 0 0 0 0 0 0 1e3 1e-8 0 4 0 1 0 1 1 5 0 6 7 8 0
 0 9 10 11 0 0 0 0 0 0 0 81 255 2 2 658 12 1 13 0 0 0 0 14 70 11 CI9 list_type0
 0 1 uI10 notransmit0 0 1 lCCCDCCDI12 finger_index0 0 1 dI12 finger_block1012 0
 CZ3 0 4 T1 0 0 11 20 1 15 15 13 255 5 99 0 1 0 16 0 0 17 0 51 255 6 521 0 18 19
 0 0 +-.002 .005 .057 0 -1 0 .005 0 0 -1 30 255 7 475 0 10 20 0 0 --.007 .005 .0
57 0 -1 0 29 255 8 460 0 11 21 0 -.007 .005 .057 19 9 CCCCCCI5 frame230 0 CA5 ow
ner12 0 Z9 33 0 1 17 0 22 0 V0 16 255 10 473 0 ?23 0 24 7 0 0 1 18 255 11 458 0
 23 0 25 8 ?1 17 255 23 0 26 27 28 11 29 10 0 30 +18 25 443 0 31 11 32 21 ?1 17
 31 0 33 34 35 25 36 37 0 38 +18 32 440 0 39 25 40 41 ?1 29 21 445 0 25 41 8 .00
2 .005 .062 29 41 442 0 32 42 21 -.002 .005 .062 29 42 427 0 40 43 41 -.007 0 .0
57 18 40 425 0 44 32 45 42 ?1 29 43 424 0 45 46 42 .002 0 .062 18 45 422 0 47 40
 48 43 ?1 29 46 421 0 48 49 43 -.002 0 .062 18 48 419 0 50 45 51 46 ?1 29 49 412
 0 51 52 46 .007 .005 .057 18 51 410 0 53 48 54 49 ?1 29 52 409 0 54 55 49 .007
 0 .057 18 54 407 0 56 51 57 52 ?1 29 55 324 0 57 58 52 -.007 .005 -.057 18 57 3
22 0 59 54 60 55 ?1 29 58 315 0 60 61 55 .007 .005 -.057 18 60 313 0 62 57 63 58
 ?1 29 61 300 0 63 64 58 -.007 0 -.057 18 63 298 0 65 60 66 61 ?1 29 64 297 0 66
 67 61 .007 0 -.057 18 66 295 0 68 63 69 64 ?1 29 67 282 0 69 70 64 -.002 .005 -
.062 18 69 280 0 71 66 72 67 ?1 29 70 279 0 72 73 67 .002 .005 -.062 18 72 277 0
 74 69 75 70 ?1 29 73 276 0 75 76 70 -.002 0 -.062 18 75 274 0 77 72 78 73 ?1 29
 76 273 0 78 0 73 .002 0 -.062 18 78 271 0 79 75 0 76 ?1 17 79 0 80 81 82 78 83
 84 0 85 -15 255 80 353 0 86 87 0 17 81 0 80 86 79 72 85 88 0 0 -17 82 0 80 79 8
6 66 89 90 0 0 -17 83 0 91 92 93 66 79 84 0 82 +16 84 307 0 ?83 90 94 95 0 0 1 1
7 85 0 96 97 98 78 81 88 0 93 +15 96 87 0 98 99 0 17 97 0 96 71 85 75 93 100 0 1
01 +17 98 0 96 85 71 72 102 103 0 81 -16 88 289 0 ?85 94 104 105 0 0 1 17 93 0 9
1 83 77 78 97 100 0 0 -15 91 49 0 92 106 0 17 77 0 91 93 107 75 65 94 0 97 +16 1
00 272 0 ?97 108 109 110 0 0 1 16 108 299 0 ?28 111 100 112 0 0 1 16 109 408 0 ?
68 100 113 114 0 0 1 30 110 73 0 100 114 112 0 +-.007 0 -.062 -1 0 0 30 114 74 0
 109 115 110 0 +.007 0 -.062 -111917643611407e-30 0 -1 30 112 72 0 108 110 116 0
 +-.007 0 -.062 1189124963371198e-31 0 1 30 116 71 0 111 112 117 0 +-.007 0 .062
 1 0 0 16 111 420 0 ?35 118 108 116 0 0 1 31 255 117 150 0 113 116 119 0 +0 0 .0
56 0 1 0 0 0 1 .0035 16 113 162 0 ?120 109 121 117 0 0 1 31 119 217 0 122 117 12
3 0 +0 0 -.054 0 1 0 0 0 1 .0035 16 122 229 0 ?124 121 125 119 0 0 1 30 123 285
 0 104 119 105 0 --.002 .005 -.062 0 -1 0 16 104 283 0 ?71 88 126 123 0 0 1 30 1
05 291 0 88 123 127 0 +.002 .005 -.062 0 -1 0 31 127 303 0 94 105 95 0 --.002 0
 -.057 0 1 0 0 0 1 .005 16 94 301 0 ?77 84 88 127 0 0 1 31 95 309 0 84 127 128 0
 -.002 0 -.057 0 1 0 0 0 1 .005 30 128 318 0 90 95 129 0 -.007 .005 -.057 0 -1 0
 16 90 316 0 ?89 130 84 128 0 0 1 31 129 327 0 130 128 131 0 +-.002 .005 -.057 0
 1 0 0 0 1 .005 16 130 325 0 ?59 132 90 129 0 0 1 31 131 333 0 132 129 133 0 +.0
02 .005 -.057 0 1 0 0 0 1 .005 16 132 331 0 ?74 134 130 131 0 0 1 30 133 339 0 1
34 131 135 0 +-.007 .005 -.057 0 -1 0 16 134 337 0 ?136 137 132 133 0 0 1 30 135
 415 0 137 133 138 0 +.007 .005 .057 0 -1 0 16 137 413 0 ?139 140 134 135 0 0 1
 31 138 430 0 140 135 141 0 --.002 0 .057 0 1 0 0 0 1 .005 16 140 428 0 ?44 142
 137 138 0 0 1 31 141 436 0 142 138 143 0 -.002 0 .057 0 1 0 0 0 1 .005 16 142 4
34 0 ?47 144 140 141 0 0 1 30 143 448 0 144 141 145 0 +-.002 .005 .062 0 -1 0 16
 144 446 0 ?146 37 142 143 0 0 1 30 145 454 0 37 143 147 0 -.002 .005 .062 0 -1
 0 16 37 452 0 ?31 148 144 145 0 0 1 31 147 463 0 148 145 20 0 +-.002 .005 .057
 0 1 0 0 0 1 .005 16 148 461 0 ?39 24 37 147 0 0 1 31 20 469 0 24 147 7 0 +.002
 .005 .057 0 1 0 0 0 1 .005 16 24 467 0 ?53 10 148 20 0 0 1 17 53 0 149 62 38 51
 150 24 0 151 +15 149 4 0 38 152 0 17 62 0 149 74 53 60 151 118 0 89 +17 38 0 14
9 53 39 25 34 126 0 150 +17 150 0 153 36 154 25 53 24 0 0 -17 151 0 155 139 89 5
1 62 118 0 154 -15 155 89 0 151 16 0 17 139 0 155 68 151 54 154 137 0 92 +17 89
 0 155 151 68 60 82 90 0 86 +16 118 411 0 ?62 103 111 156 0 0 1 17 154 0 153 150
 56 51 139 137 0 0 -15 153 489 0 150 157 0 17 56 0 153 154 36 54 47 142 0 139 -1
7 36 0 153 56 150 45 31 37 0 0 -17 47 0 91 158 92 45 56 142 0 35 +17 158 0 91 44
 47 48 35 111 0 0 -17 92 0 91 47 83 54 68 109 0 0 -17 35 0 33 31 146 45 158 111
 0 36 +15 33 83 0 35 159 0 17 146 0 33 35 34 48 160 144 0 158 +17 34 0 33 146 31
 32 38 126 0 160 -17 160 0 161 162 50 32 146 144 0 0 -15 161 510 0 162 18 0 17 1
62 0 161 29 160 11 39 148 0 0 -17 50 0 161 160 29 48 44 140 0 146 -17 29 0 161 5
0 162 40 23 10 0 0 -17 44 0 91 107 158 40 50 140 0 28 +17 107 0 91 77 44 63 28 1
08 0 0 -17 28 0 26 23 136 40 107 108 0 29 +15 26 85 0 28 163 0 17 136 0 26 28 27
 63 164 134 0 107 +17 27 0 26 136 23 57 30 165 0 164 -17 164 0 166 167 65 57 136
 134 0 0 -15 166 374 0 167 168 0 17 167 0 166 101 164 69 59 130 0 0 -17 65 0 166
 164 101 63 77 94 0 136 -17 101 0 166 65 167 75 71 104 0 0 -17 71 0 96 98 97 69
 101 104 0 102 +17 102 0 149 59 74 69 98 103 0 167 +17 59 0 149 30 102 57 167 13
0 0 27 +17 74 0 149 102 62 72 86 132 0 98 +16 103 278 0 ?102 165 118 169 0 0 1 1
6 165 323 0 ?30 126 103 170 0 0 1 30 169 11 0 103 156 170 0 +-.007 .005 -.062 -1
 0 0 30 156 7 0 118 171 169 0 +.007 .005 -.062 -111917643611407e-30 0 -1 30 170
 15 0 165 169 115 0 +-.007 .005 -.062 1189124963371198e-31 0 1 30 115 19 0 126 1
70 114 0 +-.007 .005 .062 1 0 0 16 126 441 0 ?38 104 165 115 0 0 1 31 171 192 0
 121 172 156 0 +0 .005 .056 0 1 0 0 0 1 .0035 16 121 166 0 ?173 113 122 171 0 0
 1 31 172 257 0 125 0 171 0 +0 .005 -.054 0 1 0 0 0 1 .0035 16 125 233 0 ?174 12
2 0 172 0 0 1 17 174 0 175 174 174 0 176 125 0 0 +15 175 239 0 174 177 178 17 17
6 0 179 176 176 0 174 125 0 0 -15 179 223 0 176 152 180 14 255 152 1 181 ?106 15
9 179 5 182 +0 0 106 159 22 15 180 156 0 183 152 149 17 183 0 180 183 183 0 173
 121 0 0 -17 173 0 184 173 173 0 183 121 0 0 +15 184 172 0 173 185 186 14 185 16
9 187 ?177 106 184 5 188 -0 0 177 106 22 15 186 173 0 189 185 0 17 189 0 186 189
 189 0 120 113 0 0 -17 120 0 190 120 120 0 189 113 0 0 +15 190 148 0 120 106 91
 14 106 48 191 ?185 152 192 5 193 -0 0 185 152 22 81 1 191 664 194 106 195 0 187
 196 197 15 192 215 0 124 106 190 50 255 193 70 0 106 182 198 0 +0 0 0 0 1 0 0 0
 1 13 22 34 0 0 0 0 0 0 9 16 14 16 90 196 ?99 0 155 5 199 -0 0 99 0 22 81 1 196
 666 194 16 200 0 191 201 202 14 99 88 201 ?163 16 96 5 203 -0 0 163 16 22 50 19
9 94 0 16 203 204 0 +.007 .005 -.062 -1 0 111917643611407e-30 111917643611407e-3
0 0 1 50 203 93 0 99 205 199 0 +-.007 .005 -.062 0 0 1 1 0 0 51 204 364 0 87 199
 206 0 +.002 .005 -.057 0 -1 0 .005 0 0 -1 14 87 352 207 ?168 177 80 5 204 +0 0
 168 177 22 51 206 385 0 168 204 19 0 +-.002 .005 -.057 0 -1 0 .005 0 0 -1 14 16
8 373 208 ?157 87 166 5 206 +0 0 157 87 22 51 19 500 0 157 206 6 0 +.002 .005 .0
57 0 -1 0 .005 0 0 -1 14 157 488 209 ?18 168 153 5 19 +0 0 18 168 22 81 1 209 67
4 194 157 210 0 208 211 212 14 18 509 211 ?0 157 161 5 6 +0 0 0 157 22 81 1 211
 676 194 18 213 0 209 214 215 80 7 CCCCCDI12 legal_owners0 16 1 lCZ1 194 216 217
 9000 1 1 1 1 1 1 1 1 0 FFFFTFTFFFFFFFFF1 81 3 213 675 218 18 219 211 210 220 22
1 0 0 81 1 214 678 194 159 220 0 211 222 223 82 255 1 215 1073152186 14 159 84 2
14 ?152 163 33 5 198 -0 0 152 163 22 81 3 220 677 218 159 224 214 213 225 226 0
 0 81 1 222 680 194 163 225 0 214 227 228 82 1 223 945225914 14 163 86 222 ?159
 99 26 5 205 -0 0 159 99 22 81 3 225 679 218 163 229 222 220 230 231 0 0 81 1 22
7 682 194 177 230 0 222 0 232 82 1 228 945488058 14 177 236 227 ?87 185 175 5 23
3 -0 0 87 185 22 81 3 230 681 218 177 234 227 225 0 235 0 0 82 1 232 1051459768
 80 3 218 236 237 9000 0 0 0 0 3 5 0 0 0 FFFFTFFFFFFFFFFF1 1 1 81 1 234 616 238
 177 0 230 239 240 241 82 6 235 0 -206645406 31160217 0 0 0 80 1 238 0 242 8001
 0 0 0 0 3 5 0 0 0 FFFFTFTFFFFFFFFF2 81 1 239 615 238 185 0 243 244 234 245 81 1
 240 617 238 87 0 246 234 247 248 83 255 3 241 .792156862745098 .819607843137255
 .933333333333333 81 3 246 669 218 87 240 207 249 250 251 0 0 81 1 247 618 238 1
68 0 250 240 252 253 83 3 248 .792156862745098 .819607843137255 .933333333333333
 81 3 250 671 218 168 247 208 246 210 254 0 0 81 1 252 619 238 157 0 210 247 219
 255 83 3 253 .792156862745098 .819607843137255 .933333333333333 81 3 210 673 21
8 157 252 209 250 213 256 0 0 81 1 219 620 238 18 0 213 252 0 257 83 3 255 .7921
56862745098 .819607843137255 .933333333333333 83 3 257 .792156862745098 .8196078
43137255 .933333333333333 82 6 256 0 -206545222 31160217 0 0 0 81 1 208 672 194
 168 250 0 207 209 258 82 6 254 0 -206605469 31160217 0 0 0 81 1 207 670 194 87
 246 0 201 208 259 82 1 258 1057554617 81 1 201 668 194 99 249 0 196 207 260 82
 1 259 1055588537 81 3 249 667 218 99 261 201 200 246 262 0 0 82 1 260 945750201
 81 1 261 610 238 99 0 249 263 229 264 81 3 200 665 218 16 263 196 195 249 265 0
 0 82 6 262 0 -206605469 31160217 0 0 0 81 1 263 609 238 16 0 200 0 261 266 81 3
 195 663 218 106 244 191 243 200 267 0 0 82 6 265 0 -206545222 31160217 0 0 0 81
 1 244 614 238 106 0 195 268 239 269 81 3 243 661 218 185 239 187 270 195 271 0
 0 82 6 267 0 -206545222 31160217 0 0 0 81 1 187 662 194 185 243 0 181 191 272 8
1 3 270 659 218 152 268 181 0 243 273 0 0 82 6 271 0 -206855232 31160217 0 0 0 8
1 1 268 613 238 152 0 270 224 244 274 81 1 181 660 194 152 270 0 0 187 275 82 6
 273 0 -206545222 31160217 0 0 0 82 1 275 938672314 81 1 224 612 238 159 0 220 2
29 268 276 83 3 274 .792156862745098 .819607843137255 .933333333333333 81 1 229
 611 238 163 0 225 261 224 277 83 3 276 .792156862745098 .819607843137255 .93333
3333333333 83 3 277 .792156862745098 .819607843137255 .933333333333333 82 1 272
 1030553781 83 3 269 .792156862745098 .819607843137255 .933333333333333 83 3 266
 .792156862745098 .819607843137255 .933333333333333 83 3 264 .792156862745098 .8
19607843137255 .933333333333333 82 6 251 0 -206605469 31160217 0 0 0 83 3 245 .7
92156862745098 .819607843137255 .933333333333333 79 255 15 242 SDL/TYSA_COLOUR79
 18 237 DOWNSTREAM_FACE_ID51 233 254 0 177 0 188 0 +0 -.005 -.054 0 1 0 .0035 0
 0 1 51 188 189 0 185 233 182 0 +0 -.005 .056 0 1 0 .0035 0 0 1 50 182 3 0 152 1
88 193 0 +0 .005 0 0 1 0 0 0 1 82 6 231 0 -206545222 31160217 0 0 0 50 205 92 0
 163 198 203 0 +-.007 .005 -.062 1 0 -1189124963371198e-31 -1189124963371198e-31
 0 -1 50 198 91 0 159 193 205 0 +-.007 .005 .062 0 0 -1 -1 0 0 82 6 226 0 -20654
5222 31160217 0 0 0 82 6 221 0 -206545222 31160217 0 0 0 79 14 217 SWEntUnchange
d82 1 212 1071186106 82 1 202 946012346 17 124 0 192 124 124 0 278 122 0 0 +17 2
78 0 178 278 278 0 124 122 0 0 -15 178 240 0 278 177 0 82 1 197 944308410 17 30
 0 149 39 59 11 27 165 0 162 +17 39 0 149 38 30 32 162 148 0 34 +17 86 0 80 82 8
1 60 74 132 0 0 -17 68 0 155 89 139 66 92 109 0 83 +19 17 100 0 1 0 9 5 0 S0 74
 4 CI16 index_map_offset0 0 1 dCCZ20 15 11 0 0 230 279 280 281 227 282 283 284 1
3 219 2 0 0 0 0 0 0 0 0 0 81 2 279 130 285 1 0 280 0 0 0 286 81 2 280 134 287 1
 279 281 0 0 0 288 81 2 281 135 289 1 280 282 0 0 290 0 81 1 282 540 291 1 281 2
83 0 0 292 81 2 283 541 293 1 282 284 0 0 0 0 81 2 284 555 294 1 283 13 0 0 295
 0 81 2 13 608 296 1 284 2 0 0 0 297 80 2 296 298 299 9000 0 0 0 0 3 5 0 0 0 FFT
FFFFFFFFFFFFF9 1 82 1 297 1 79 24 299 BODY_IN_LIGHTWEIGHT_PERM80 2 294 300 301 8
004 0 0 0 0 3 5 0 0 0 FFTFFFFFFFFFFFFF2 3 83 1 295 1 79 16 301 SDL/TYSA_DENSITY8
0 2 293 302 303 9000 0 0 0 0 3 5 0 0 0 FFTFFFFFFFFFFFFF9 1 79 16 303 BODY_RECIPE
_200180 1 291 304 305 9000 1 1 1 1 1 1 1 1 0 FFTFFFFFFFFFFFFF1 82 1 292 604145 7
9 10 305 BODY_MATCH80 2 289 306 307 9000 0 0 0 0 3 5 0 0 0 FFTFTTTFFTFFFFFF10 10
 98 255 7 290 70 105 108 108 101 116 50 79 23 307 SWIMPLICITBODYNAME_ID_U80 2 28
7 308 309 9000 0 0 0 0 3 5 0 0 0 FFTFFFFFFFFFFFFF9 1 82 1 288 66 79 30 309 LAST_
BODY_MODIFYING_FEATURE_ID80 2 285 310 311 9000 0 0 0 0 3 5 0 0 0 FFTFFFFFFFFFFFF
F9 1 82 1 286 162 79 19 311 ENT_TIME_STAMP_200180 2 12 312 313 9000 0 0 0 0 3 5
 0 0 0 FFTFFFFFFFFFFFFF9 1 82 1 14 103 79 12 313 ATOM_ID_20011 0 
