**ABCDEFGHIJKLMNOPQRSTUVWXYZabcdefghijklmnopqrstuvwxyz**************************
**PARASOLID !"#$%&'()*+,-./:;<=>?@[\]^_`{|}~0123456789**************************
**PART1;
MC=AMD64;
MC_MODEL=Intel64 Family 6 Model 69 Stepping 1, GenuineIntel;
MC_ID=unknown;
OS=Windows_NT;
OS_RELEASE=unknown;
FRU=Parasolid Version 35.1, build 251, 11- 4-2023;
APPL=SOLIDWORKS 2024-2024016;
SITE=;
USER=unknown;
FORMAT=text;
GUISE=transmit;
KEY=roller2;
FILE=roller2.x_t;
DATE=Wed Feb  5 08:45:39 2025;
**PART2;
SCH=SCH_3501251_35102;
USFLD_SIZE=0;
**PART3;
**END_OF_HEADER*****************************************************************
T51 : TRANSMIT FILE created by modeller version 350125123 SCH_3501251_35102_1300
6231 0 12 36 CCCI7 lattice222 0 CCCI4 mesh1006 0 I8 polyline1008 0 CCCCCCCDI5 ow
ner1040 0 CCCI16 boundary_lattice222 0 CCCI13 boundary_mesh1006 0 I17 boundary_p
olyline1008 0 CCCA16 index_map_offset0 0 1 dA9 index_map82 0 A17 node_id_index_m
ap82 0 A20 schema_embedding_map82 0 A5 child12 0 A14 lowest_node_id0 0 1 dA16 me
sh_offset_data206 0 Z1 1159 2 3 0 0 0 0 0 0 0 1e3 1e-8 0 4 0 1 0 1 1 5 0 6 7 8 0
 0 9 10 11 0 0 0 0 0 0 0 81 255 2 2 1115 12 1 13 0 0 0 0 14 70 11 CI9 list_type0
 0 1 uI10 notransmit0 0 1 lCCCDCCDI12 finger_index0 0 1 dI12 finger_block1012 0
 CZ3 0 4 T1 0 0 11 20 1 15 15 13 255 5 99 0 1 0 16 0 0 17 0 51 255 6 879 0 18 19
 0 0 +.223 0 .013 0 1 0 .007 0 0 1 30 255 7 829 0 10 20 0 0 -.223 .004 .02 0 -1
 0 29 255 8 814 0 11 21 0 .223 .004 .02 19 9 CCCCCCI5 frame230 0 CA5 owner12 0 Z
9 33 0 1 17 0 22 0 V0 16 255 10 827 0 ?23 0 24 7 0 0 1 18 255 11 812 0 23 0 25 8
 ?1 17 255 23 0 26 27 28 11 29 10 0 30 +18 25 797 0 31 11 32 21 ?1 17 31 0 33 34
 35 25 36 37 0 38 +18 32 794 0 39 25 40 41 ?1 29 21 799 0 25 41 8 .23 .004 .007
 29 41 796 0 32 42 21 .23 .004 .013 29 42 781 0 40 43 41 .223 -.004 .02 18 40 77
9 0 44 32 45 42 ?1 29 43 778 0 45 46 42 .23 -.004 .007 18 45 776 0 47 40 48 43 ?
1 29 46 775 0 48 49 43 .23 -.004 .013 18 48 773 0 50 45 51 46 ?1 29 49 764 0 51
 52 46 .223 -.004 0 18 51 762 0 53 48 54 49 ?1 29 52 761 0 54 55 49 .223 .004 0
 18 54 759 0 56 51 57 52 ?1 29 55 666 0 57 58 52 -.223 .018 .02 18 57 664 0 59 5
4 60 55 ?1 29 58 655 0 60 61 55 -.223 .018 0 18 60 653 0 62 57 63 58 ?1 29 61 64
0 0 63 64 58 -.223 .01 0 18 63 638 0 65 60 66 61 ?1 29 64 637 0 66 67 61 -.223 .
01 .02 18 66 635 0 68 63 69 64 ?1 29 67 622 0 69 70 64 -.23 .01 .013 18 69 620 0
 71 66 72 67 ?1 29 70 619 0 72 73 67 -.23 .01 .007 18 72 617 0 74 69 75 70 ?1 29
 73 616 0 75 76 70 -.23 .018 .007 18 75 614 0 77 72 78 73 ?1 29 76 613 0 78 79 7
3 -.23 .018 .013 18 78 611 0 80 75 81 76 ?1 29 79 423 0 81 82 76 -.21 .01 0 18 8
1 421 0 83 78 84 79 ?1 29 82 243 0 84 85 79 .21 .004 0 18 84 241 0 86 81 87 82 ?
1 29 85 146 0 87 88 82 .2 -.015 .02 18 87 144 0 89 84 90 85 ?1 29 88 75 0 91 92
 85 .21 -.018 0 18 91 66 0 93 94 95 88 ?1 29 92 76 0 95 96 88 -.21 -.018 0 18 95
 67 0 97 91 98 92 ?1 29 96 78 0 98 99 92 .21 .018 0 18 98 69 0 100 95 101 96 ?1
 29 99 32 0 90 102 96 .21 -.018 .02 18 90 30 0 103 87 104 99 ?1 29 102 29 0 104
 105 99 -.21 -.018 .02 18 104 27 0 106 90 94 102 ?1 29 105 23 0 94 107 102 .21 .
018 .02 18 94 21 0 108 104 91 105 ?1 29 107 213 0 101 109 105 -.2 -.015 .02 18 1
01 184 0 110 98 111 107 ?1 29 109 214 0 111 112 107 -.2 .015 .02 18 111 183 0 11
3 101 114 109 ?1 29 112 216 0 114 115 109 .2 .015 .02 18 114 185 0 116 111 117 1
12 ?1 29 115 339 0 117 118 112 .21 -.004 .02 18 117 293 0 119 114 120 115 ?1 29
 118 340 0 120 121 115 .21 .004 .02 18 120 294 0 27 117 122 118 ?1 29 121 342 0
 122 123 118 .21 -.004 0 18 122 290 0 124 120 125 121 ?1 29 123 511 0 125 0 121
 -.21 .01 .02 18 125 464 0 126 122 0 123 ?1 17 126 0 26 106 68 125 127 128 0 129
 +15 255 26 4 0 28 130 131 17 106 0 26 103 126 104 129 132 0 133 +17 68 0 26 126
 134 66 135 136 0 127 +17 127 0 137 71 138 66 126 128 0 139 -16 128 636 0 ?126 1
40 141 142 0 0 1 17 129 0 143 144 133 125 106 132 0 138 -15 143 428 0 144 16 0 1
7 144 0 143 97 129 81 138 145 0 146 -17 133 0 143 129 97 104 147 148 0 149 -16 1
32 425 0 ?106 150 151 152 0 0 1 17 138 0 137 127 83 125 144 145 0 0 +15 137 484
 0 153 154 0 17 83 0 137 138 65 81 155 140 0 144 +16 145 445 0 ?138 156 157 158
 0 0 1 16 156 612 0 ?159 141 145 160 0 0 1 16 157 566 0 ?161 145 162 163 0 0 1 3
0 158 503 0 145 164 142 0 +-.21 .01 .02 0 0 1 30 164 507 0 141 160 158 0 +-.23 .
01 .02 0 0 1 30 142 502 0 128 158 165 0 +-.23 .01 .02 1 0 0 30 165 501 0 140 142
 166 0 +-.23 .01 0 1 0 0 16 140 639 0 ?83 167 128 165 0 0 1 31 255 166 402 0 167
 165 168 0 +.222296044686541 -.009 .01011672810288484 0 -1 0 0 0 -1 .0035 16 167
 382 0 ?169 170 140 166 0 0 1 30 168 338 0 171 166 172 0 +.23 -.004 .02 0 0 -1 1
6 171 774 0 ?35 173 174 168 0 0 1 30 172 336 0 173 168 175 0 +.23 .004 .02 0 0 -
1 16 173 795 0 ?38 176 171 172 0 0 1 30 175 334 0 170 172 177 0 +.21 -.004 .02 0
 0 -1 16 170 261 0 ?178 174 167 175 0 0 1 30 177 332 0 174 175 179 0 +.21 .004 .
02 0 0 -1 16 174 283 0 ?180 171 170 177 0 0 1 30 179 330 0 176 177 181 0 +.23 -.
004 .02 -1 0 0 16 176 780 0 ?119 182 173 179 0 0 1 30 181 329 0 182 179 183 0 +.
23 .004 .02 -1 0 0 16 182 813 0 ?27 184 176 181 0 0 1 30 183 328 0 184 181 185 0
 +.23 .004 0 -1 0 0 16 184 760 0 ?86 186 182 183 0 0 1 30 185 327 0 186 183 187
 0 +.23 -.004 0 -1 0 0 16 186 763 0 ?124 188 184 185 0 0 1 31 187 212 0 189 185
 190 0 +-.2 -2449293598294705e-33 .02 1 0 0 0 0 -1 .015 16 189 175 0 ?191 192 18
8 187 0 0 1 31 190 211 0 188 187 193 0 +.2 -2449293598294705e-33 .02 1 0 0 0 0 -
1 .015 16 188 179 0 ?194 189 186 190 0 0 1 30 193 7 0 195 190 196 0 +.21 .018 .0
2 0 1 0 16 195 5 0 ?197 151 198 193 198 198 1 30 196 11 0 151 193 152 0 +-.21 .0
18 .02 -1 0 0 16 151 9 0 ?134 132 195 196 0 0 1 30 152 15 0 132 196 199 0 +-.21
 .018 .02 0 -1 0 30 199 19 0 150 152 200 0 +-.21 -.018 .02 1 0 0 16 150 17 0 ?10
3 201 132 199 0 0 1 30 200 74 0 202 199 203 0 +.21 .018 0 0 1 0 16 202 62 0 ?204
 205 192 200 192 192 1 30 203 73 0 205 200 206 0 +-.21 .018 0 -1 0 0 16 205 58 0
 ?207 208 202 203 0 0 1 30 206 72 0 208 203 209 0 +-.21 .018 0 0 -1 0 16 208 422
 0 ?97 210 205 206 0 0 1 30 209 71 0 210 206 211 0 +-.21 -.018 0 1 0 0 16 210 50
 0 ?93 198 208 209 0 0 1 30 211 95 0 201 209 212 0 +.21 -.018 .02 0 0 -1 16 201
 79 0 ?213 148 150 211 0 0 1 30 212 96 0 148 211 214 0 +-.21 -.018 .02 0 0 -1 16
 148 80 0 ?147 215 201 212 0 0 1 30 214 98 0 215 212 216 0 +.21 .018 .02 0 0 -1
 16 215 82 0 ?217 218 148 214 0 0 1 30 216 150 0 218 214 219 0 +.2 0 .02 0 1 0 1
6 218 148 0 ?116 220 215 216 0 0 1 30 219 154 0 220 216 221 0 --.2 .015 .02 1 0
 0 16 220 152 0 ?113 222 218 219 0 0 1 30 221 158 0 222 219 223 0 +-.2 -.015 .02
 1 0 0 16 222 156 0 ?224 225 220 221 0 0 1 30 223 161 0 225 221 226 0 +-.2 0 .02
 0 1 0 16 225 159 0 ?227 228 222 223 0 0 1 31 226 374 0 228 223 229 0 -.22229604
4686541 -.004 .01011672810288484 0 1 0 0 0 1 .0035 16 228 371 0 ?230 231 225 226
 0 0 1 30 229 625 0 231 226 232 0 +-.23 .018 .013 0 1 0 16 231 623 0 ?233 234 22
8 229 0 0 1 30 232 631 0 234 229 235 0 +-.23 0 .007 0 -1 0 16 234 629 0 ?236 237
 231 232 0 0 1 31 235 643 0 237 232 238 0 --.223 .01 .013 0 1 0 0 0 1 .007 16 23
7 641 0 ?71 239 234 235 0 0 1 31 238 649 0 239 235 240 0 --.223 .01 .007 0 1 0 0
 0 1 .007 16 239 647 0 ?65 241 237 238 0 0 1 30 240 658 0 241 238 242 0 --.223 0
 0 0 -1 0 16 241 656 0 ?62 243 239 240 0 0 1 31 242 669 0 243 240 244 0 --.223 .
018 .013 0 -1 0 0 0 -1 .007 16 243 667 0 ?59 245 241 242 0 0 1 31 244 676 0 245
 242 246 0 --.223 .018 .007 0 -1 0 0 0 -1 .007 16 245 674 0 ?77 136 243 244 0 0
 1 30 246 683 0 136 244 247 0 --.223 .01 .02 0 1 0 16 136 681 0 ?68 248 245 246
 0 0 1 30 247 767 0 248 246 249 0 +.223 0 0 0 -1 0 16 248 765 0 ?250 251 136 247
 0 0 1 31 249 784 0 251 247 252 0 -.223 -.004 .013 0 1 0 0 0 1 .007 16 251 782 0
 ?44 253 248 249 0 0 1 31 252 790 0 253 249 254 0 -.223 -.004 .007 0 1 0 0 0 1 .
007 16 253 788 0 ?47 255 251 252 0 0 1 30 254 802 0 255 252 256 0 +.23 -.004 .01
3 0 -1 0 16 255 800 0 ?257 37 253 254 0 0 1 30 256 808 0 37 254 258 0 -.23 0 .00
7 0 -1 0 16 37 806 0 ?31 259 255 256 0 0 1 31 258 817 0 259 256 20 0 +.223 .004
 .013 0 1 0 0 0 1 .007 16 259 815 0 ?39 24 37 258 0 0 1 31 20 823 0 24 258 7 0 +
.223 .004 .007 0 1 0 0 0 1 .007 16 24 821 0 ?56 10 259 20 0 0 1 17 56 0 260 86 3
8 54 261 24 0 262 +15 260 308 0 38 263 0 17 86 0 260 264 56 84 262 184 0 180 +17
 38 0 260 56 39 25 34 173 0 261 +17 261 0 265 36 266 25 56 24 0 0 -17 262 0 267
 250 268 54 86 184 0 266 -15 267 49 0 262 269 0 17 250 0 267 124 262 51 266 248
 0 270 +17 268 0 267 262 271 84 100 192 0 0 -17 266 0 265 261 53 54 250 248 0 0
 -15 265 847 0 261 272 0 17 53 0 265 266 36 51 47 253 0 250 -17 36 0 265 53 261
 45 31 37 0 0 -17 47 0 273 274 270 45 53 253 0 35 +15 273 300 0 270 275 0 17 274
 0 273 44 47 48 35 171 0 0 -17 270 0 273 47 178 51 124 186 0 0 -17 35 0 33 31 25
7 45 274 171 0 36 +15 33 315 0 35 276 0 17 257 0 33 35 34 48 277 255 0 274 +17 3
4 0 33 257 31 32 38 173 0 277 -17 277 0 278 279 50 32 257 255 0 0 -15 278 868 0
 279 18 0 17 279 0 278 29 277 11 39 259 0 0 -17 50 0 278 277 29 48 44 251 0 257
 -17 29 0 278 50 279 40 23 10 0 0 -17 44 0 273 119 274 40 50 251 0 28 +17 119 0
 273 178 44 117 28 176 0 280 +17 28 0 26 23 197 40 119 176 0 29 -17 197 0 26 28
 103 117 281 195 0 0 +17 103 0 26 197 106 90 149 150 0 282 +17 281 0 283 213 280
 90 197 195 0 0 -15 283 256 0 280 284 0 17 213 0 283 204 281 91 282 201 0 285 +1
7 280 0 283 281 204 117 178 170 0 197 -17 204 0 283 280 213 122 285 202 0 0 +17
 178 0 273 270 119 122 280 170 0 204 +17 285 0 267 286 124 91 204 202 0 0 -17 28
6 0 267 146 285 95 93 210 0 0 -17 124 0 267 285 250 122 270 186 0 178 +17 146 0
 267 155 286 81 97 208 0 0 -17 93 0 287 282 147 91 286 210 0 213 +15 287 83 0 93
 288 0 17 282 0 287 149 93 90 213 201 0 281 -17 147 0 287 93 149 95 133 148 0 28
6 +17 149 0 287 147 282 104 103 150 0 0 -14 255 288 84 289 ?269 290 287 5 291 -0
 0 269 290 22 81 1 289 1117 292 288 293 0 0 294 295 14 269 48 294 ?296 288 267 5
 297 -0 0 296 288 22 14 290 88 298 ?288 299 300 5 301 -0 0 288 299 22 50 255 291
 91 0 288 297 302 0 +-.21 -.018 .02 0 1 0 0 0 1 13 22 34 0 0 0 0 0 0 9 16 14 16
 429 303 ?284 0 143 5 302 -0 0 284 0 22 81 1 303 1123 292 16 304 0 298 305 306 1
4 284 257 305 ?130 16 283 5 307 -299 299 130 16 22 50 302 92 0 16 291 301 0 +-.2
1 .018 .02 1 0 0 0 0 -1 50 301 93 0 290 302 307 0 +-.21 .018 .02 0 -1 0 0 0 -1 5
0 307 94 0 299 301 308 0 +.21 .018 .02 -1 0 0 0 0 1 14 299 90 309 ?290 130 310 5
 307 -284 284 290 130 22 51 308 716 0 311 307 312 0 +-.223 0 .007 0 -1 0 .007 0
 0 -1 14 311 704 313 ?314 315 316 5 308 +0 0 314 315 22 51 312 737 0 314 308 19
 0 +-.223 0 .013 0 -1 0 .007 0 0 -1 14 314 725 317 ?272 311 318 5 312 +0 0 272 3
11 22 51 19 858 0 272 312 6 0 +.223 0 .007 0 -1 0 .007 0 0 -1 14 272 846 319 ?18
 314 265 5 19 +0 0 18 314 22 81 1 319 1133 292 272 320 0 317 321 322 14 18 867 3
21 ?0 272 278 5 6 +0 0 0 272 22 81 1 321 1135 292 18 323 0 319 324 325 80 7 CCCC
CDI12 legal_owners0 16 1 lCZ1 292 326 327 9000 1 1 1 1 1 1 1 1 0 FFFFTFTFFFFFFFF
F1 81 3 323 1134 328 18 329 321 320 330 331 0 0 81 1 324 1137 292 276 330 0 321
 332 333 82 255 1 325 514850987 14 276 313 324 ?334 263 33 5 335 -0 0 334 263 22
 81 3 330 1136 328 276 336 324 323 337 338 0 0 81 1 332 1139 292 263 337 0 324 3
39 340 82 1 333 46596267 14 263 305 332 ?276 275 260 5 341 +0 0 276 275 22 81 3
 337 1138 328 263 342 332 330 343 344 0 0 81 1 339 1141 292 275 343 0 332 345 34
6 82 1 340 46858411 14 275 297 339 ?263 347 348 5 349 -0 0 263 347 22 81 3 343 1
140 328 275 350 339 337 351 352 0 0 81 1 345 1143 292 130 351 0 339 353 354 82 1
 346 47120555 14 130 162 345 ?299 284 26 5 355 +0 0 299 284 22 81 3 351 1142 328
 130 356 345 343 357 358 0 0 81 1 353 1145 292 359 357 0 345 360 361 82 1 354 47
579307 14 359 485 353 ?315 154 362 5 363 -0 0 315 154 22 81 3 357 1144 328 359 3
64 353 351 365 366 0 0 81 1 360 1147 292 154 365 0 353 367 368 82 1 361 39885226
6 14 154 481 360 ?359 369 370 5 371 -0 0 359 369 22 81 3 365 1146 328 154 372 36
0 357 373 374 0 0 81 1 367 1149 292 315 373 0 360 375 376 82 1 368 405405866 14
 315 573 367 ?311 359 377 5 378 -0 0 311 359 22 81 3 373 1148 328 315 379 367 36
5 380 381 0 0 81 1 375 1151 292 369 380 0 367 382 383 82 1 376 492306601 14 369
 390 375 ?154 334 384 5 385 +0 0 154 334 22 81 3 380 1150 328 369 386 375 373 38
7 388 0 0 81 1 382 1153 292 334 387 0 375 389 390 82 1 383 375521445 14 334 385
 382 ?369 276 391 5 392 -0 0 369 276 22 81 3 387 1152 328 334 393 382 380 394 39
5 0 0 81 1 389 1155 292 347 394 0 382 396 397 82 1 390 377487525 14 347 203 389
 ?275 398 399 5 400 -0 0 275 398 22 81 3 394 1154 328 347 401 389 387 402 403 0
 0 81 1 396 1157 292 398 402 0 389 404 405 82 1 397 -1291321231 14 398 200 396 ?
347 296 406 5 407 +0 0 347 296 22 81 3 402 1156 328 398 408 396 394 409 410 0 0
 81 1 404 1159 292 296 409 0 396 0 411 82 1 405 -1293025167 14 296 196 404 ?398
 269 412 5 413 -0 0 398 269 22 81 3 409 1158 328 296 414 404 402 0 415 0 0 82 1
 411 -1291059087 80 3 328 416 417 9000 0 0 0 0 3 5 0 0 0 FFFFTFFFFFFFFFFF1 1 1 8
1 1 414 1028 418 296 0 409 419 408 420 82 6 415 0 -446618825 31160143 0 0 0 80 1
 418 0 421 8001 0 0 0 0 3 5 0 0 0 FFFFTFTFFFFFFFFF2 81 1 419 1027 418 269 0 422
 423 414 424 81 1 408 1029 418 398 0 402 414 401 425 83 255 3 420 .7921568627450
98 .819607843137255 .933333333333333 81 1 401 1030 418 347 0 394 408 350 426 83
 3 425 .792156862745098 .819607843137255 .933333333333333 81 1 350 1031 418 275
 0 343 401 342 427 83 3 426 .792156862745098 .819607843137255 .933333333333333 8
1 1 342 1032 418 263 0 337 350 336 428 83 3 427 .792156862745098 .81960784313725
5 .933333333333333 81 1 336 1033 418 276 0 330 342 393 429 83 3 428 .79215686274
5098 .819607843137255 .933333333333333 81 1 393 1034 418 334 0 387 336 386 430 8
3 3 429 .792156862745098 .819607843137255 .933333333333333 81 1 386 1035 418 369
 0 380 393 372 431 83 3 430 .792156862745098 .819607843137255 .933333333333333 8
1 1 372 1036 418 154 0 365 386 364 432 83 3 431 .792156862745098 .81960784313725
5 .933333333333333 81 1 364 1037 418 359 0 357 372 379 433 83 3 432 .79215686274
5098 .819607843137255 .933333333333333 81 1 379 1038 418 315 0 373 364 434 435 8
3 3 433 .792156862745098 .819607843137255 .933333333333333 81 1 434 1039 418 311
 0 436 379 437 438 83 3 435 .792156862745098 .819607843137255 .933333333333333 8
1 3 436 1128 328 311 434 313 439 440 441 0 0 81 1 437 1040 418 314 0 440 434 442
 443 83 3 438 .792156862745098 .819607843137255 .933333333333333 81 3 440 1130 3
28 314 437 317 436 320 444 0 0 81 1 442 1041 418 272 0 320 437 329 445 83 3 443
 .792156862745098 .819607843137255 .933333333333333 81 3 320 1132 328 272 442 31
9 440 323 446 0 0 81 1 329 1042 418 18 0 323 442 0 447 83 3 445 .792156862745098
 .819607843137255 .933333333333333 83 3 447 .792156862745098 .819607843137255 .9
33333333333333 82 6 446 0 269521293 31160209 0 0 0 81 1 317 1131 292 314 440 0 3
13 319 448 82 6 444 0 269414187 31160209 0 0 0 81 1 313 1129 292 311 436 0 309 3
17 449 82 1 448 498401450 81 1 309 1127 292 299 439 0 305 313 450 82 1 449 49643
5370 81 3 439 1126 328 299 451 309 452 436 453 0 0 81 1 305 1125 292 284 452 0 3
03 309 454 82 1 450 1952252025 81 3 452 1124 328 284 455 305 304 439 456 0 0 82
 1 454 1105199225 81 1 455 1022 418 284 0 452 457 356 458 81 3 304 1122 328 16 4
57 303 459 452 460 0 0 82 6 456 0 683362179 31160145 0 0 0 81 1 457 1021 418 16
 0 304 0 455 461 81 3 459 1120 328 290 462 298 422 304 463 0 0 82 6 460 0 269142
557 31160209 0 0 0 81 1 462 1025 418 290 0 459 451 423 464 81 1 298 1121 292 290
 459 0 294 303 465 81 3 422 1118 328 269 419 294 293 459 466 0 0 82 6 463 0 2694
14187 31160209 0 0 0 81 1 294 1119 292 269 422 0 289 298 467 81 3 293 1116 328 2
88 423 289 0 422 468 0 0 82 6 466 0 269521293 31160209 0 0 0 81 1 423 1026 418 2
88 0 293 462 419 469 82 6 468 0 -263171008 31160142 0 0 0 83 3 469 .792156862745
098 .819607843137255 .933333333333333 82 1 467 44957867 82 1 465 45023402 81 1 4
51 1024 418 299 0 439 356 462 470 83 3 464 .792156862745098 .819607843137255 .93
3333333333333 81 1 356 1023 418 130 0 351 455 451 471 83 3 470 .792156862745098
 .819607843137255 .933333333333333 83 3 471 .792156862745098 .819607843137255 .9
33333333333333 83 3 461 .792156862745098 .819607843137255 .933333333333333 83 3
 458 .792156862745098 .819607843137255 .933333333333333 82 6 453 0 683362179 311
60145 0 0 0 82 6 441 0 269414187 31160209 0 0 0 83 3 424 .792156862745098 .81960
7843137255 .933333333333333 79 255 15 421 SDL/TYSA_COLOUR79 18 417 DOWNSTREAM_FA
CE_ID15 412 199 0 224 296 0 51 413 208 0 296 400 355 0 +-.2 -2449293598294705e-3
3 .02 1 0 0 .015 0 0 -1 50 400 209 0 347 407 413 0 +.2 -2449293598294705e-33 .02
 1 0 0 0 0 -1 50 355 3 0 130 413 297 0 +0 0 .02 0 0 1 1 0 0 50 297 70 0 269 355
 291 0 +0 0 0 0 0 1 1 0 0 50 407 210 0 398 349 400 0 +-.2 -2449293598294705e-33
 .02 1 0 0 0 0 -1 50 349 321 0 275 341 407 0 +.23 -.004 .02 0 1 0 0 0 1 50 341 3
23 0 263 335 349 0 +.23 .004 .02 0 1 0 0 0 1 50 335 326 0 276 392 341 0 +.23 0 0
 -1 0 0 0 0 1 51 392 398 0 334 385 335 0 -.222296044686541 -.009 .01011672810288
484 0 1 0 .0035 0 0 1 50 385 400 0 369 371 392 0 +.222296044686541 -.009 .010116
72810288484 0 -1 0 0 0 -1 50 371 496 0 154 363 385 0 +-.23 .01 .02 0 1 0 0 0 1 5
0 363 498 0 359 378 371 0 +-.23 0 0 1 0 0 0 0 -1 51 378 593 0 315 0 363 0 +-.223
 .03 .01 0 -1 0 .0035 0 0 -1 17 224 0 412 194 472 87 473 222 0 474 +17 194 0 412
 113 224 114 89 188 0 475 +17 472 0 412 224 113 101 191 189 0 473 -17 473 0 131
 227 474 101 224 222 0 0 -17 474 0 131 473 475 87 116 218 0 0 -15 131 145 0 473
 130 0 17 475 0 131 474 227 114 113 220 0 0 -17 116 0 399 89 89 114 474 218 0 19
4 +15 399 205 0 116 347 0 17 89 0 399 116 116 87 194 188 0 224 -17 227 0 131 475
 473 111 110 225 0 0 +17 113 0 412 472 194 111 475 220 0 191 +17 191 0 406 110 1
10 111 472 189 0 227 +15 406 202 0 191 398 0 17 110 0 406 191 191 101 227 225 0
 472 -82 6 410 0 -446618825 31160143 0 0 0 82 6 403 0 -446618825 31160143 0 0 0
 82 6 395 0 268992591 31160209 0 0 0 15 391 388 0 476 334 477 17 476 0 391 476 4
76 0 169 167 0 0 -15 477 389 0 230 334 0 17 230 0 477 230 230 0 478 228 0 0 +17
 478 0 348 478 478 0 230 228 0 0 -15 348 373 0 478 275 273 17 169 0 384 169 169
 0 476 167 0 0 +15 384 392 0 169 369 0 82 6 388 0 268992591 31160209 0 0 0 82 6
 381 0 269272560 31160209 0 0 0 15 377 576 0 479 315 480 17 479 0 377 479 479 0
 481 162 0 0 +15 480 577 0 482 315 0 17 482 0 480 482 482 0 161 157 0 0 -17 161
 0 300 161 161 0 482 157 0 0 +15 300 559 0 161 290 483 15 483 87 0 207 290 0 17
 207 0 483 77 217 60 271 205 0 484 +17 77 0 483 485 207 75 484 245 0 159 +17 217
 0 483 207 486 98 487 215 0 0 +17 271 0 267 268 62 98 207 205 0 217 -17 484 0 31
6 488 489 60 77 245 0 0 -15 316 705 0 484 311 0 17 488 0 316 74 484 63 62 241 0
 0 -17 489 0 316 484 74 75 236 234 0 0 -17 74 0 316 489 488 72 65 239 0 236 -17
 236 0 362 490 159 72 489 234 0 153 +15 362 487 0 159 359 0 17 490 0 362 233 236
 69 153 141 0 491 +17 159 0 362 236 233 75 485 156 0 489 +17 153 0 137 65 71 72
 490 141 0 0 -17 65 0 137 83 153 63 74 239 0 155 +17 71 0 137 153 127 69 139 237
 0 490 +16 141 618 0 ?490 128 156 164 0 0 1 17 139 0 318 135 491 66 71 237 0 0 -
15 318 726 0 139 314 0 17 135 0 318 80 139 57 68 136 0 0 -17 491 0 318 139 80 69
 233 231 0 0 -17 80 0 318 491 135 78 59 243 0 233 -17 233 0 362 159 490 78 491 2
31 0 485 +17 485 0 483 59 77 78 159 156 0 0 -17 59 0 483 486 485 57 80 243 0 134
 +17 486 0 483 217 59 94 134 151 0 487 -17 134 0 26 68 108 57 486 151 0 135 +17
 108 0 26 134 27 94 492 198 0 486 +17 27 0 26 108 23 120 30 182 0 264 +17 492 0
 310 180 487 120 108 198 0 0 -16 198 248 0 ?108 195 210 193 195 195 1 15 310 89
 0 492 299 0 17 180 0 310 100 492 84 264 174 0 268 +17 487 0 310 492 100 94 217
 215 0 0 -17 100 0 310 487 180 98 268 192 0 271 +16 192 242 0 ?100 202 189 200 2
02 202 1 17 264 0 260 30 86 120 180 174 0 492 -17 30 0 260 39 264 11 27 182 0 27
9 -17 39 0 260 38 30 32 279 259 0 34 +17 155 0 267 62 146 63 83 140 0 488 -17 62
 0 267 271 155 60 488 241 0 207 +17 481 0 370 481 481 0 479 162 0 0 -16 162 570
 0 ?479 157 0 493 0 0 1 31 493 597 0 162 0 163 0 +-.223 .01 .01 0 -1 0 0 0 -1 .0
035 31 163 596 0 157 493 160 0 +-.223 .018 .01 0 -1 0 0 0 -1 .0035 30 160 509 0
 156 163 164 0 +-.23 .018 .02 0 0 -1 15 370 552 0 481 154 137 82 6 374 0 2694141
87 31160209 0 0 0 82 6 366 0 269414187 31160209 0 0 0 82 6 358 0 269521293 31160
209 0 0 0 82 6 352 0 269521293 31160209 0 0 0 82 6 344 0 269521293 31160209 0 0
 0 82 6 338 0 269521293 31160209 0 0 0 82 6 331 0 269521293 31160209 0 0 0 79 14
 327 SWEntUnchanged82 1 322 512884907 82 1 306 417792167 82 1 295 1951465577 17
 97 0 143 133 144 95 146 208 0 147 +19 17 100 0 1 0 9 5 0 S0 74 4 CI16 index_map
_offset0 0 1 dCCZ20 15 11 0 0 409 404 494 495 496 497 498 499 13 329 2 0 0 0 0 0
 0 0 0 0 81 2 494 529 500 1 0 495 0 0 0 501 81 2 495 538 502 1 494 496 0 0 0 503
 81 2 496 539 504 1 495 497 0 0 505 0 81 1 497 898 506 1 496 498 0 0 507 81 2 49
8 899 508 1 497 499 0 0 0 0 81 2 499 923 509 1 498 13 0 0 510 0 81 2 13 1020 511
 1 499 2 0 0 0 512 80 2 511 513 514 9000 0 0 0 0 3 5 0 0 0 FFTFFFFFFFFFFFFF9 1 8
2 1 512 1 79 24 514 BODY_IN_LIGHTWEIGHT_PERM80 2 509 515 516 8004 0 0 0 0 3 5 0
 0 0 FFTFFFFFFFFFFFFF2 3 83 1 510 1 79 16 516 SDL/TYSA_DENSITY80 2 508 517 518 9
000 0 0 0 0 3 5 0 0 0 FFTFFFFFFFFFFFFF9 1 79 16 518 BODY_RECIPE_200180 1 506 519
 520 9000 1 1 1 1 1 1 1 1 0 FFTFFFFFFFFFFFFF1 82 1 507 443 79 10 520 BODY_MATCH8
0 2 504 521 522 9000 0 0 0 0 3 5 0 0 0 FFTFTTTFFTFFFFFF10 10 98 255 7 505 70 105
 108 108 101 116 52 79 23 522 SWIMPLICITBODYNAME_ID_U80 2 502 523 524 9000 0 0 0
 0 3 5 0 0 0 FFTFFFFFFFFFFFFF9 1 82 1 503 145 79 30 524 LAST_BODY_MODIFYING_FEAT
URE_ID80 2 500 525 526 9000 0 0 0 0 3 5 0 0 0 FFTFFFFFFFFFFFFF9 1 82 1 501 144 7
9 19 526 ENT_TIME_STAMP_200180 2 12 527 528 9000 0 0 0 0 3 5 0 0 0 FFTFFFFFFFFFF
FFF9 1 82 1 14 108 79 12 528 ATOM_ID_20011 0 
